2.5Hzhigh3min_grf.mot
version=1
nRows=20
nColumns 19
inDegrees=yes
endheader
time	1_ground_force_vx	1_ground_force_vy	1_ground_force_vz	1_ground_force_px	1_ground_force_py	1_ground_force_pz	1_ground_torque_x	1_ground_torque_y	1_ground_torque_z	2_ground_force_vx	2_ground_force_vy	2_ground_force_vz	2_ground_force_px	2_ground_force_py	2_ground_force_pz	2_ground_torque_x	2_ground_torque_y	2_ground_torque_z
            3.751500	           -0.228173	           -0.722680	            0.364324	           -0.233013	            0.005581	           -0.255695	           -0.523064	            0.195611	           -0.402371	            0.095070	           -0.368293	            0.092502	           -0.232311	            0.006130	           -0.833667	           -0.394697	            0.055292	            0.000370
            3.752000	           -0.319337	           -1.084015	            0.546430	           -0.233013	            0.005581	           -0.255695	           -0.455637	           -0.229367	           -0.464651	            0.145120	           -1.287861	           -0.192372	           -0.232311	            0.006130	           -0.833667	           -0.338367	            0.064881	            0.019230
            3.752500	           -0.274228	           -0.181695	            0.320901	           -0.233013	            0.005581	           -0.255695	           -0.614832	           -0.442869	           -0.256470	            0.236079	           -0.550260	           -0.377496	           -0.232311	            0.006130	           -0.833667	           -0.413271	            0.007624	            0.094461
            3.753000	           -0.227247	           -0.183652	            0.779346	           -0.233013	            0.005581	           -0.255695	           -0.522070	           -0.211245	           -0.366541	            0.098146	           -1.287026	           -0.473920	           -0.232311	            0.006130	           -0.833667	           -0.394372	           -0.039101	           -0.037668
            3.753500	           -0.181791	           -1.804855	            0.497141	           -0.233013	            0.005581	           -0.255695	           -0.527975	            0.075068	           -0.306892	            0.096920	           -0.919566	           -0.237966	           -0.232311	            0.006130	           -0.833667	           -0.338019	           -0.020530	            0.113178
            3.754000	            0.276184	           -1.803980	            0.312579	           -0.233013	            0.005581	           -0.255695	           -0.539405	            0.408839	           -0.473866	            0.189229	           -0.550429	           -0.377476	           -0.232311	            0.006130	           -0.833667	           -0.319386	            0.017483	            0.075604
            3.754500	            0.001042	           -0.722636	            0.363755	           -0.233013	            0.005581	           -0.255695	           -0.523067	            0.343610	           -0.391963	            0.094865	           -0.366619	           -0.376779	           -0.232311	            0.006130	           -0.833667	           -0.300676	            0.027340	           -0.018621
            3.755000	           -0.136681	           -0.902535	            0.271612	           -0.233013	            0.005581	           -0.255695	           -0.631675	            0.020084	           -0.417736	            0.096338	           -0.736088	           -0.049596	           -0.232311	            0.006130	           -0.833667	           -0.281995	            0.074134	            0.132341
            3.755500	           -0.181646	           -0.723851	            0.639346	           -0.233013	            0.005581	           -0.255695	           -0.572154	           -0.285186	           -0.364760	            0.190682	           -0.919730	           -0.097221	           -0.232311	            0.006130	           -0.833667	           -0.338196	            0.017617	            0.019061
            3.756000	           -0.365051	           -0.543620	            0.640574	           -0.233013	            0.005581	           -0.255695	           -0.478360	           -0.405497	           -0.354535	            0.469143	           -0.182289	           -0.047784	           -0.232311	            0.006130	           -0.833667	           -0.356897	           -0.001490	            0.056702
            3.756500	           -0.273282	           -1.625000	            0.589853	           -0.233013	            0.005581	           -0.255695	           -0.588612	           -0.155503	           -0.443232	            0.098996	           -1.472681	           -0.052224	           -0.232311	            0.006130	           -0.833667	           -0.338052	           -0.020261	            0.037777
            3.757000	           -0.273363	           -1.805069	            0.543224	           -0.233013	            0.005581	           -0.255695	           -0.567791	            0.223398	           -0.422855	            0.186111	            0.368639	            0.095091	           -0.232311	            0.006130	           -0.833667	           -0.338085	           -0.019992	           -0.037624
            3.757500	            0.047017	           -1.443689	            0.360550	           -0.233013	            0.005581	           -0.255695	           -0.522659	            0.417659	           -0.408464	            0.235394	           -0.365945	           -0.423767	           -0.232311	            0.006130	           -0.833667	           -0.356982	            0.017549	            0.019069
            3.758000	           -0.227879	           -1.083604	            0.454490	           -0.233013	            0.005581	           -0.255695	           -0.545400	            0.334019	           -0.345315	           -0.043671	           -0.919739	           -0.331762	           -0.232311	            0.006130	           -0.833667	           -0.432140	            0.017413	           -0.018599
            3.758500	           -0.043923	           -0.543952	            0.731489	           -0.233013	            0.005581	           -0.255695	           -0.501070	           -0.072588	           -0.339369	            0.094926	           -0.367121	           -0.235994	           -0.232311	            0.006130	           -0.833667	           -0.300864	            0.083922	            0.019282
            3.759000	           -0.228173	           -0.722680	            0.364324	           -0.233013	            0.005581	           -0.255695	           -0.504279	           -0.386559	           -0.442510	            0.279544	            0.371153	           -0.515015	           -0.232311	            0.006130	           -0.833667	           -0.338232	            0.036254	            0.094530
            3.759500	           -0.273398	           -0.363337	            0.641120	           -0.233013	            0.005581	           -0.255695	           -0.497577	           -0.340191	           -0.481891	            0.280435	            0.185163	            0.000538	           -0.232311	            0.006130	           -0.833667	           -0.281780	           -0.001017	            0.000120
            3.760000	           -0.226953	           -0.544577	            0.869512	           -0.233013	            0.005581	           -0.255695	           -0.582237	           -0.035387	           -0.422019	            0.373408	            0.370152	           -0.139630	           -0.232311	            0.006130	           -0.833667	           -0.375511	           -0.058006	           -0.018893
            3.760500	           -0.182575	           -0.001412	            0.321446	           -0.233013	            0.005581	           -0.255695	           -0.540356	            0.288061	           -0.400003	            0.328511	           -0.182127	           -0.235437	           -0.232311	            0.006130	           -0.833667	           -0.356829	           -0.020396	            0.056635
            3.761000	           -0.228565	            0.179042	            0.276477	           -0.233013	            0.005581	           -0.255695	           -0.463417	            0.454354	           -0.382644	            0.281599	           -0.181794	           -0.376201	           -0.232311	            0.006130	           -0.833667	           -0.300540	           -0.010471	           -0.018756
